<svg xmlns="http://www.w3.org/2000/svg" version="1.1" xmlns:xlink="http://www.w3.org/1999/xlink" xmlns:svgjs="http://svgjs.com/svgjs" width="1000" height="1000"><rect width="1000" height="1000" rx="250" ry="250" fill="#000000" data-darkreader-inline-fill="" style="--darkreader-inline-fill:#000000;"></rect><g transform="matrix(7.642379145407571,0,0,7.642379145407571,150.00000621977694,291.0110012381034)"><svg xmlns="http://www.w3.org/2000/svg" version="1.1" xmlns:xlink="http://www.w3.org/1999/xlink" xmlns:svgjs="http://svgjs.com/svgjs" width="91.59451352536485" height="54.69213684846925"><svg xmlns="http://www.w3.org/2000/svg" fill="none" viewBox="0 0 91.59451352536485 54.69213684846925">
    <linearGradient id="0">
        <stop id="SvgjsStop4225" stop-color="#8f5e25" offset="0" data-darkreader-inline-stopcolor="" style="--darkreader-inline-stopcolor:#895a24;"></stop>
        <stop id="SvgjsStop4226" stop-color="#fbf4a1" offset="0.5" data-darkreader-inline-stopcolor="" style="--darkreader-inline-stopcolor:#5f5804;"></stop>
        <stop id="SvgjsStop4227" stop-color="#8f5e25" offset="1" data-darkreader-inline-stopcolor="" style="--darkreader-inline-stopcolor:#895a24;"></stop>
    </linearGradient>
    <g transform="translate(-18.316099095125843, -36.63220063327186) scale(1.2808461589044693)" fill="url(#0)">
        <g>
            <path class="st0" d="M84.6,28.6H22.6c-0.7,0-1.2,0.6-1.2,1.2v2.4h-2.4c-0.7,0-1.2,0.6-1.2,1.2v2.3h-2.3c-0.7,0-1.2,0.6-1.2,1.2   v33.2c0,0.7,0.6,1.2,1.2,1.2h62.1c0.7,0,1.2-0.6,1.2-1.2v-2.3H81c0.7,0,1.2-0.6,1.2-1.2v-2.4h2.4c0.7,0,1.2-0.6,1.2-1.2V29.8   C85.9,29.1,85.3,28.6,84.6,28.6z M16.6,38.3h16.9c-1.9,4.5-2.9,9.8-2.9,15.3s1,10.9,2.9,15.3H16.6V38.3z M35.7,68.9   c-2-4.4-3.1-9.8-3.1-15.3s1.1-11,3.1-15.3h21.4c2,4.4,3.1,9.8,3.1,15.3s-1.1,11-3.1,15.3H35.7z M76.2,68.9H59.3   c1.9-4.5,2.9-9.8,2.9-15.3s-1-10.9-2.9-15.3h16.9V68.9z M79.7,65.4h-1V37c0-0.7-0.6-1.2-1.2-1.2H20.2v-1h59.6V65.4z M83.4,61.7   h-1.1V33.5c0-0.7-0.6-1.2-1.2-1.2H23.8v-1.1h59.6V61.7z"></path>
            <path class="st0" d="M51.8,54c-0.8-0.8-2.2-1.4-4.4-1.8v-5.5c1.3,0.2,2,1,2.1,2.2c0,0.1,0.1,0.2,0.2,0.2h2.6c0.1,0,0.1,0,0.2-0.1   c0-0.1,0.1-0.1,0.1-0.2c-0.3-2.7-2.1-4.3-5.2-4.5v-1.6c0-0.1-0.1-0.2-0.2-0.2h-1.4c-0.1,0-0.2,0.1-0.2,0.2v1.6   c-1.6,0.2-2.9,0.7-3.8,1.5c-1,0.9-1.5,2.1-1.5,3.6c0,2.6,1.8,4.2,5.4,4.9v6.2c-1.6-0.3-2.5-1.4-2.7-3.1c0-0.1-0.1-0.2-0.2-0.2H40   c-0.1,0-0.1,0-0.2,0.1c0,0.1-0.1,0.1-0.1,0.2c0.3,3.2,2.2,5,5.8,5.4v1.6c0,0.1,0.1,0.2,0.2,0.2h1.4c0.1,0,0.2-0.1,0.2-0.2v-1.6   c1.7-0.1,3.1-0.7,4.1-1.7c1-1.1,1.6-2.4,1.6-3.8C53.1,55.9,52.7,54.8,51.8,54z M45.5,51.8c-0.7-0.2-1.2-0.4-1.6-0.8   c-0.5-0.4-0.7-0.9-0.7-1.7c0-1.4,0.8-2.3,2.3-2.6V51.8z M47.4,60.5v-5.8c1,0.3,1.7,0.6,2,0.9c0.4,0.4,0.6,1,0.6,1.7   C50,59.2,49.2,60.3,47.4,60.5z"></path>
        </g>
    </g>
</svg></svg></g></svg>