<svg xmlns="http://www.w3.org/2000/svg" width="351.55488152787734" height="54.69213684846925" viewBox="0 0 351.55488152787734 54.69213684846925">
    <defs id="SvgjsDefs4219">
        <linearGradient id="SvgjsLinearGradient4224">
            <stop id="SvgjsStop4225" stop-color="#8f5e25" offset="0"></stop>
            <stop id="SvgjsStop4226" stop-color="#fbf4a1" offset="0.5"></stop>
            <stop id="SvgjsStop4227" stop-color="#8f5e25" offset="1"></stop>
        </linearGradient>
        <linearGradient id="SvgjsLinearGradient4228">
            <stop id="SvgjsStop4229" stop-color="#8f5e25" offset="0"></stop>
            <stop id="SvgjsStop4230" stop-color="#fbf4a1" offset="0.5"></stop>
            <stop id="SvgjsStop4231" stop-color="#8f5e25" offset="1"></stop>
        </linearGradient>
    </defs>
    <g id="SvgjsG4220" featurekey="symbolFeature-0" transform="matrix(1.2808461589044693,0,0,1.2808461589044693,-18.316099095125843,-36.63220063327186)" fill="url(#SvgjsLinearGradient4224)">
        <g>
            <path d="M84.6,28.6H22.6c-0.7,0-1.2,0.6-1.2,1.2v2.4h-2.4c-0.7,0-1.2,0.6-1.2,1.2v2.3h-2.3c-0.7,0-1.2,0.6-1.2,1.2   v33.2c0,0.7,0.6,1.2,1.2,1.2h62.1c0.7,0,1.2-0.6,1.2-1.2v-2.3H81c0.7,0,1.2-0.6,1.2-1.2v-2.4h2.4c0.7,0,1.2-0.6,1.2-1.2V29.8   C85.9,29.1,85.3,28.6,84.6,28.6z M16.6,38.3h16.9c-1.9,4.5-2.9,9.8-2.9,15.3s1,10.9,2.9,15.3H16.6V38.3z M35.7,68.9   c-2-4.4-3.1-9.8-3.1-15.3s1.1-11,3.1-15.3h21.4c2,4.4,3.1,9.8,3.1,15.3s-1.1,11-3.1,15.3H35.7z M76.2,68.9H59.3   c1.9-4.5,2.9-9.8,2.9-15.3s-1-10.9-2.9-15.3h16.9V68.9z M79.7,65.4h-1V37c0-0.7-0.6-1.2-1.2-1.2H20.2v-1h59.6V65.4z M83.4,61.7   h-1.1V33.5c0-0.7-0.6-1.2-1.2-1.2H23.8v-1.1h59.6V61.7z" style="fill: url(#SvgjsLinearGradient4224);"></path>
            <path d="M51.8,54c-0.8-0.8-2.2-1.4-4.4-1.8v-5.5c1.3,0.2,2,1,2.1,2.2c0,0.1,0.1,0.2,0.2,0.2h2.6c0.1,0,0.1,0,0.2-0.1   c0-0.1,0.1-0.1,0.1-0.2c-0.3-2.7-2.1-4.3-5.2-4.5v-1.6c0-0.1-0.1-0.2-0.2-0.2h-1.4c-0.1,0-0.2,0.1-0.2,0.2v1.6   c-1.6,0.2-2.9,0.7-3.8,1.5c-1,0.9-1.5,2.1-1.5,3.6c0,2.6,1.8,4.2,5.4,4.9v6.2c-1.6-0.3-2.5-1.4-2.7-3.1c0-0.1-0.1-0.2-0.2-0.2H40   c-0.1,0-0.1,0-0.2,0.1c0,0.1-0.1,0.1-0.1,0.2c0.3,3.2,2.2,5,5.8,5.4v1.6c0,0.1,0.1,0.2,0.2,0.2h1.4c0.1,0,0.2-0.1,0.2-0.2v-1.6   c1.7-0.1,3.1-0.7,4.1-1.7c1-1.1,1.6-2.4,1.6-3.8C53.1,55.9,52.7,54.8,51.8,54z M45.5,51.8c-0.7-0.2-1.2-0.4-1.6-0.8   c-0.5-0.4-0.7-0.9-0.7-1.7c0-1.4,0.8-2.3,2.3-2.6V51.8z M47.4,60.5v-5.8c1,0.3,1.7,0.6,2,0.9c0.4,0.4,0.6,1,0.6,1.7   C50,59.2,49.2,60.3,47.4,60.5z" style="fill: url(#SvgjsLinearGradient4224);"></path>
        </g>
    </g>
    <g id="SvgjsG4221" featurekey="nameFeature-0" transform="matrix(1.1234050482959563,0,0,1.1234050482959563,111.86519152276799,0.08050370194433398)" fill="url(#SvgjsLinearGradient4228)">
        <path d="M10.12 40 l-1.72 0 l-8.28 -30 l2.12 0 l7 26.52 l7.16 -26.52 l2.04 0 z M32.120000000000005 40 l-2.2 -8.84 l-9.76 0 l-2.2 8.84 l-2 0 l8.28 -30 l1.72 0 l8.24 30 l-2.08 0 z M25.16 11.879999999999999 l-4.52 17.36 l8.76 0 z M57.52 32.44 c-0.02668 1.3333 -0.15316 2.5 -0.37984 3.5 s-0.61336 1.8267 -1.16 2.48 s-1.2667 1.14 -2.16 1.46 s-2.02 0.48 -3.38 0.48 c-2.3467 0 -4.0532 -0.65332 -5.12 -1.96 s-1.6 -3.2934 -1.6 -5.96 l0 -14.8 c0 -2.6667 0.54 -4.6532 1.62 -5.96 s2.9267 -1.96 5.54 -1.96 c2.3467 0 4.0268 0.65332 5.04 1.96 s1.5466 3.2934 1.6 5.96 l0.04 1.84 l-1.84 0 l-0.04 -2.32 c0 -0.66668 -0.06668 -1.34 -0.2 -2.02 s-0.37332 -1.3 -0.72 -1.86 s-0.83336 -1.0133 -1.46 -1.36 s-1.46 -0.52 -2.5 -0.52 c-1.0133 0 -1.86 0.16 -2.54 0.48 s-1.22 0.76 -1.62 1.32 s-0.67332 1.22 -0.82 1.98 s-0.22 1.58 -0.22 2.46 l0.08 15 c0 1.84 0.34 3.28 1.02 4.32 s1.9267 1.56 3.74 1.56 c1.04 0 1.9 -0.14 2.58 -0.42 s1.2133 -0.67332 1.6 -1.18 s0.66 -1.12 0.82 -1.84 s0.24 -1.5067 0.24 -2.36 l0.04 -2.6 l1.84 0 z M75.80000000000001 40 l-2.2 -8.84 l-9.76 0 l-2.2 8.84 l-2 0 l8.28 -30 l1.72 0 l8.24 30 l-2.08 0 z M68.84 11.879999999999999 l-4.52 17.36 l8.76 0 z M79.80000000000001 40 l0 -30 l2.16 0 l0 27.84 l10.2 0 l0 2.16 l-12.36 0 z M106.76 32.44 c-0.02668 1.3333 -0.15316 2.5 -0.37984 3.5 s-0.61336 1.8267 -1.16 2.48 s-1.2667 1.14 -2.16 1.46 s-2.02 0.48 -3.38 0.48 c-2.3467 0 -4.0532 -0.65332 -5.12 -1.96 s-1.6 -3.2934 -1.6 -5.96 l0 -14.8 c0 -2.6667 0.54 -4.6532 1.62 -5.96 s2.9267 -1.96 5.54 -1.96 c2.3467 0 4.0268 0.65332 5.04 1.96 s1.5466 3.2934 1.6 5.96 l0.04 1.84 l-1.84 0 l-0.04 -2.32 c0 -0.66668 -0.06668 -1.34 -0.2 -2.02 s-0.37332 -1.3 -0.72 -1.86 s-0.83336 -1.0133 -1.46 -1.36 s-1.46 -0.52 -2.5 -0.52 c-1.0133 0 -1.86 0.16 -2.54 0.48 s-1.22 0.76 -1.62 1.32 s-0.67332 1.22 -0.82 1.98 s-0.22 1.58 -0.22 2.46 l0.08 15 c0 1.84 0.34 3.28 1.02 4.32 s1.9267 1.56 3.74 1.56 c1.04 0 1.9 -0.14 2.58 -0.42 s1.2133 -0.67332 1.6 -1.18 s0.66 -1.12 0.82 -1.84 s0.24 -1.5067 0.24 -2.36 l0.04 -2.6 l1.84 0 z M118.24000000000001 40.36 c-2.4533 0 -4.3536 -0.66672 -5.7 -2 s-2.02 -3.3066 -2.02 -5.92 l0 -22.44 l2.16 0 l0 22.32 c0 0.64 0.08668 1.3133 0.26 2.02 s0.47332 1.3467 0.9 1.92 s0.99336 1.0466 1.7 1.42 s1.58 0.56 2.62 0.56 c1.1467 0 2.0934 -0.16668 2.84 -0.5 s1.3467 -0.79332 1.8 -1.38 s0.77332 -1.28 0.96 -2.08 s0.28 -1.6533 0.28 -2.56 l0 -21.72 l2.12 0 l0 22.44 c0 2.6667 -0.64668 4.6532 -1.94 5.96 s-3.2866 1.96 -5.98 1.96 z M129.88 40 l0 -30 l2.16 0 l0 27.84 l10.2 0 l0 2.16 l-12.36 0 z M160.16 40 l-2.2 -8.84 l-9.76 0 l-2.2 8.84 l-2 0 l8.28 -30 l1.72 0 l8.24 30 l-2.08 0 z M153.2 11.879999999999999 l-4.52 17.36 l8.76 0 z M169.08 12.2 l0 27.8 l-2.32 0 l0 -27.8 l-6.52 0 l0 -2.2 l15.36 0 l0 2.2 l-6.52 0 z M184.48000000000002 40.36 c-5.04 0 -7.56 -2.64 -7.56 -7.92 l0 -14.8 c0 -2.6667 0.63332 -4.6532 1.9 -5.96 s3.3134 -1.96 6.14 -1.96 c2.5867 0 4.5 0.66 5.74 1.98 s1.86 3.2733 1.86 5.86 l0 14.88 c0 1.3333 -0.14 2.4933 -0.42 3.48 s-0.74 1.8134 -1.38 2.48 s-1.4733 1.16 -2.5 1.48 s-2.2867 0.48 -3.78 0.48 z M190.44000000000003 17.52 c0 -0.66668 -0.09328 -1.3468 -0.27996 -2.0401 s-0.49336 -1.3266 -0.92004 -1.9 s-0.99336 -1.04 -1.7 -1.4 s-1.58 -0.54 -2.62 -0.54 c-1.1467 0 -2.1 0.16 -2.86 0.48 s-1.36 0.76668 -1.8 1.34 s-0.75332 1.2466 -0.94 2.02 s-0.28 1.6133 -0.28 2.52 l0 14.2 c0 0.69332 0.08 1.4 0.24 2.12 s0.44668 1.38 0.86 1.98 s0.97332 1.0933 1.68 1.48 s1.5934 0.58 2.66 0.58 c1.1467 0 2.1 -0.15332 2.86 -0.46 s1.3667 -0.72668 1.82 -1.26 s0.78 -1.1666 0.98 -1.9 s0.3 -1.5266 0.3 -2.38 l0 -14.84 z M210.72000000000003 40 l-6.6 -12.44 l-6.12 0 l0 12.44 l-1.96 0 l0 -30 l6.8 0 c1.5733 0 2.92 0.23332 4.04 0.7 s2.04 1.1 2.76 1.9 s1.2533 1.7267 1.6 2.78 s0.52 2.1533 0.52 3.3 c0 1.9467 -0.5 3.7 -1.5 5.26 s-2.3133 2.7 -3.94 3.42 l7.04 12.64 l-2.64 0 z M202.56000000000003 11.84 l-4.56 -0.000039062 l0 13.68 l4.84 0 c1.36 0 2.48 -0.20668 3.36 -0.62 s1.5667 -0.94664 2.06 -1.6 s0.84 -1.4 1.04 -2.24 s0.3 -1.7 0.3 -2.58 c0 -0.93332 -0.16 -1.8 -0.48 -2.6 s-0.78 -1.5 -1.38 -2.1 s-1.3333 -1.0733 -2.2 -1.42 s-1.86 -0.52 -2.98 -0.52 z">
        </path>
    </g>
</svg>
